HIERARCHY
ROOT Hips
{
	OFFSET 0.00000 0.00000 0.00000
	CHANNELS 6 Xposition Yposition Zposition Yrotation Zrotation Xrotation 
	JOINT Lumbar
	{
		OFFSET 0 0 0
		CHANNELS 3 Zrotation Xrotation Yrotation
		JOINT Neck
		{
			OFFSET 0.00 0.2701 0.00
			CHANNELS 3 Zrotation Xrotation Yrotation
			End Site
			{
				OFFSET 0.00 0.1379 0.00
			}
		}
		JOINT RightShoulder
		{
			OFFSET 0.0119 0.2289 0.1181
			CHANNELS 3 Zrotation Xrotation Yrotation
			JOINT RightElbow
			{
				OFFSET 0.00 -0.1475 0.00
				CHANNELS 2 Zrotation Yrotation
				JOINT RightWrist
				{
					OFFSET 0.00 -0.1605 0.00
					CHANNELS 2 Zrotation Xrotation
					End Site
					{
						OFFSET 0.0040 -0.1068 0.0006
					}
				}
			}
		}
		JOINT LeftShoulder
		{
			OFFSET 0.0119 0.2289 -0.1181
			CHANNELS 3 Zrotation Xrotation Yrotation
			JOINT LeftElbow
			{
				OFFSET 0.00 -0.1475 0.00
				CHANNELS 2 Zrotation Yrotation
				JOINT LeftWrist
				{
					OFFSET 0.00 -0.1605 0.00
					CHANNELS 2 Zrotation Xrotation
					End Site
					{
						OFFSET 0.0040 -0.1068 -0.0006
					}
				}
			}
		}
	}
	JOINT RightHip
	{
		OFFSET 0.0316 -0.0424 0.0458
		CHANNELS 3 Zrotation Xrotation Yrotation
		JOINT RightKnee
		{
			OFFSET 0.00 -0.2438 0.00
			CHANNELS 1 Zrotation
			JOINT RightAnkle
			{
				OFFSET 0.00 -0.2449 0.00
				CHANNELS 3 Zrotation Xrotation Yrotation
				End Site
				{
					OFFSET 0.1237 -0.0542 0.0051
				}
			}
		}
	}
	JOINT LeftHip
	{
		OFFSET 0.0316 -0.0424 -0.0458
		CHANNELS 3 Zrotation Xrotation Yrotation
		JOINT LeftKnee
		{
			OFFSET 0.00 -0.2438 0.00
			CHANNELS 1 Zrotation
			JOINT LeftAnkle
			{
				OFFSET 0.00 -0.2449 0.00
				CHANNELS 3 Zrotation Xrotation Yrotation
				End Site
				{
					OFFSET 0.1237 -0.0542 -0.0051
				}
			}
		}
	}
}
MOTION
Frames: 33
Frame Time: 0.02
0.71119 0.09179 -0.52043 381.38576 -29.78338 -7.54386 1.0275 6.46508 -2.35958 -45.92436 -20.36982 -2.11982 -51.15135 -32.47353 4.91519 93.36886 80.30576 2.37567 -7.31568 -26.292 21.4677 6.66685 69.04754 -82.0542 -3.72767 5.06428 67.18078 -11.49723 -12.84732 -62.36379 -5.91855 -2.98256 -3.64816 75.58036 16.7913 0.64699 -67.38553 -8.02363 3.04738 3.7894
0.70648 0.08479 -0.52189 381.0619 -30.40061 -7.16947 0.98215 6.52434 -2.87854 -46.52322 -21.71682 -2.11983 -51.6071 -32.45976 5.14441 93.95908 80.27093 2.18113 -6.8977 -24.64006 22.2622 6.65125 67.9728 -85.9244 -5.54143 5.93396 70.12351 -12.37332 -11.75333 -65.04735 -5.89054 -2.95478 -3.63335 77.71152 16.61885 1.06634 -69.54221 -7.8338 3.07449 3.79325
0.70197 0.07749 -0.52333 380.65881 -31.32006 -6.72657 1.37405 6.45339 -3.23102 -47.29863 -23.15158 -2.11983 -51.96256 -32.36693 5.585 94.38886 80.24687 1.918 -6.18228 -22.64061 23.14152 6.49218 66.67029 -90.78577 -7.79549 6.99082 73.4818 -13.10823 -10.26114 -67.66474 -5.88405 -2.94837 -3.62957 80.38698 16.45688 1.83056 -71.99199 -7.72617 3.11923 3.81017
0.6974 0.07031 -0.52477 380.30194 -32.04048 -6.32065 1.53242 6.43321 -3.64736 -47.99166 -24.47931 -2.11983 -52.35271 -32.29271 5.9139 94.86441 80.21457 1.68134 -5.65894 -20.8215 23.97138 6.40931 65.51848 -94.96673 -9.76621 7.91108 76.57445 -13.89404 -8.96093 -70.30411 -5.86742 -2.93194 -3.62063 82.75 16.28453 2.41059 -74.30913 -7.58111 3.15544 3.82085
0.69268 0.06318 -0.52626 379.90788 -33.01387 -5.89096 1.82552 6.45075 -4.11944 -48.69564 -26.09399 -2.11983 -52.79366 -32.28788 6.31011 95.45872 80.19473 1.46557 -4.90607 -18.89947 24.85528 6.27391 64.16503 -100.10208 -12.08133 9.04826 79.98349 -14.73985 -7.6231 -72.98106 -5.85185 -2.91598 -3.61193 85.38549 16.12931 3.10917 -76.63789 -7.43153 3.19127 3.83127
0.68833 0.05588 -0.52764 379.5709 -33.53438 -5.49477 1.94863 6.35896 -4.43495 -49.41792 -27.13289 -2.11983 -53.10141 -32.12295 6.6155 95.76605 80.15282 1.19067 -4.55187 -17.11181 25.64265 6.21476 63.17621 -103.50647 -13.79075 9.78183 82.83327 -15.42587 -6.2675 -75.56099 -5.83935 -2.90437 -3.60546 87.58196 15.94405 3.64304 -79.00432 -7.31264 3.23295 3.84587
0.68492 0.04821 -0.52877 379.40225 -32.73723 -5.20051 1.46987 5.98391 -4.34182 -50.14896 -26.52911 -2.11984 -53.08543 -31.51319 6.62322 95.31671 80.03907 0.75616 -5.42808 -15.7878 26.15511 6.41748 63.27635 -101.69897 -13.66516 9.31117 84.05913 -15.70116 -4.93731 -77.90913 -5.83024 -2.90025 -3.60277 88.4521 15.66558 3.62104 -81.43132 -7.25967 3.28796 3.86961
0.68188 0.04039 -0.52978 379.29457 -31.47357 -4.94362 0.81122 5.50507 -4.09886 -50.89195 -25.34699 -2.11984 -52.93375 -30.74935 6.53193 94.58265 79.90448 0.26683 -6.70374 -14.61037 26.56381 6.69895 63.74637 -98.15006 -12.92504 8.43547 84.70417 -15.8201 -3.60574 -80.15716 -5.82355 -2.8998 -3.60195 88.8581 15.35894 3.42372 -83.8786 -7.23524 3.34831 3.89718
0.67868 0.03265 -0.53083 379.16351 -30.42038 -4.67402 0.25287 5.08219 -3.93473 -51.62813 -24.45029 -2.11985 -52.83235 -30.07087 6.48174 93.9825 79.78486 -0.18939 -7.75932 -13.36284 27.0114 6.93615 64.03135 -95.52317 -12.50281 7.77364 85.60334 -16.01338 -2.28817 -82.43882 -5.8157 -2.89727 -3.60008 89.46532 15.07084 3.31725 -86.29722 -7.19759 3.40568 3.92276
0.67544 0.02483 -0.53195 379.01098 -29.38483 -4.3834 -0.36923 4.61861 -3.72008 -52.37579 -23.46467 -2.11986 -52.77995 -29.32511 6.45237 93.36388 79.64204 -0.68337 -8.97001 -12.11993 27.49857 7.20822 64.38275 -92.38125 -11.93403 6.99302 86.56227 -16.19028 -0.90019 -84.77174 -5.80877 -2.89703 -3.59936 90.13469 14.75804 3.17648 -88.81089 -7.16367 3.46613 3.9499
0.67238 0.01716 -0.53288 378.91935 -28.19688 -4.14707 -0.90625 4.2157 -3.57659 -53.10076 -22.52162 -2.11987 -52.58908 -28.68363 6.35716 92.71052 79.54288 -1.10981 -9.95305 -10.904 27.87553 7.42298 64.68298 -89.88328 -11.51738 6.36069 87.24847 -16.36304 0.33599 -86.97063 -5.80032 -2.89282 -3.59663 90.55449 14.49078 3.06005 -91.12437 -7.12782 3.52097 3.97442
0.6697 0.00983 -0.5333 378.97531 -26.70925 -4.04551 -1.1712 4.0161 -3.67186 -53.75276 -21.87265 -2.11987 -52.09695 -28.37099 6.07024 92.09826 79.56555 -1.34514 -10.24019 -9.75383 27.98907 7.50573 64.78351 -89.61192 -11.68477 6.24096 87.36343 -16.58933 1.15287 -88.86027 -5.7861 -2.87489 -3.58693 90.41959 14.348 3.05953 -92.90463 -7.07855 3.5613 3.99188
0.6672 0.00267 -0.53352 379.09197 -25.08168 -3.99867 -1.34472 3.8799 -3.84362 -54.3816 -21.27993 -2.11987 -51.46237 -28.16849 5.72537 91.44995 79.63329 -1.50873 -10.28121 -8.62342 27.99135 7.51998 64.81471 -90.04439 -12.02402 6.2833 87.21416 -16.81329 1.81429 -90.61149 -5.77033 -2.85304 -3.57524 90.04258 14.2529 3.08634 -94.47625 -7.02623 3.59532 4.00632
0.66463 -0.0045 -0.53381 379.18485 -23.51189 -3.93117 -1.55842 3.70843 -3.97755 -55.02551 -20.63743 -2.11987 -50.8612 -27.91383 5.42886 90.77362 79.68322 -1.69895 -10.41516 -7.46679 28.03464 7.53696 64.85803 -90.1288 -12.2705 6.24716 87.1581 -17.02058 2.54553 -92.4032 -5.75582 -2.83413 -3.56505 89.7604 14.14212 3.09556 -96.12624 -6.97556 3.63067 4.02135
0.662 -0.01197 -0.53418 379.26346 -21.94999 -3.84755 -1.78594 3.56031 -4.1193 -55.6524 -20.07513 -2.11987 -50.38465 -27.6624 5.03773 90.27107 79.72222 -1.91597 -10.63868 -6.38399 28.11701 7.67796 64.99689 -90.25229 -12.54827 6.21512 87.19675 -17.29419 3.2831 -94.28808 -5.73909 -2.81057 -3.55247 89.52791 14.00766 3.12227 -97.84812 -6.92454 3.67266 4.03978
0.65956 -0.01875 -0.53433 379.38576 -20.34517 -3.80955 -1.95813 3.38025 -4.26465 -56.30702 -19.36908 -2.11987 -49.62005 -27.4327 4.82906 89.40633 79.79362 -2.05987 -10.61709 -5.15505 28.09 7.5415 64.91433 -90.50899 -12.82152 6.22115 86.98133 -17.43493 3.96732 -95.94474 -5.72656 -2.79556 -3.54428 89.13871 13.931 3.11934 -99.36847 -6.8735 3.69932 4.05043
0.65752 -0.02377 -0.5339 379.6106 -18.65177 -3.88824 -2.02143 3.09512 -4.40422 -57.06019 -18.23484 -2.11987 -48.06411 -27.23484 5.15701 87.51267 79.95516 -2.01468 -9.93325 -3.47681 27.81311 6.67152 64.2459 -90.74773 -12.93638 6.26911 86.14412 -17.17732 4.5691 -97.02737 -5.72627 -2.80658 -3.54939 88.39176 14.03127 3.04572 -100.39911 -6.81981 3.68438 4.03973
0.65567 -0.02808 -0.53325 379.87743 -16.92328 -4.01004 -2.02737 2.77672 -4.54488 -57.83833 -16.96067 -2.11987 -46.22909 -27.05631 5.66767 85.26468 80.14575 -1.89868 -9.01739 -1.65817 27.42574 5.52153 63.35377 -91.13933 -13.06013 6.35568 85.06045 -16.79237 5.11768 -97.88135 -5.7302 -2.82607 -3.55885 87.49502 14.1838 2.93948 -101.23104 -6.76664 3.65432 4.02139
0.65377 -0.03266 -0.53271 380.12709 -15.21577 -4.10915 -2.04452 2.47466 -4.68401 -58.59504 -15.76431 -2.11987 -44.54339 -26.8702 6.08285 83.20445 80.31536 -1.81832 -8.23616 0.0706 27.0732 4.48869 62.55637 -91.61667 -13.25489 6.44275 84.08247 -16.48816 5.67272 -98.82605 -5.73201 -2.84069 -3.56585 86.65855 14.29226 2.8365 -102.14356 -6.71535 3.63172 4.00696
0.65172 -0.03747 -0.5321 380.37157 -13.48113 -4.22307 -2.1211 2.1685 -4.83057 -59.39601 -14.50746 -2.11987 -42.7599 -26.68171 6.54815 81.02802 80.519 -1.72214 -7.32491 1.91037 26.782 3.49534 61.78531 -91.48465 -13.15105 6.46126 83.12124 -16.08924 6.29637 -99.82196 -5.73461 -2.8594 -3.5748 85.84538 14.484 2.78059 -103.09 -6.65521 3.60656 3.99067
0.65003 -0.04163 -0.53158 380.63511 -11.79744 -4.3159 -2.06171 1.86352 -4.96035 -60.10788 -13.34526 -2.11987 -41.11293 -26.50268 6.95366 79.01237 80.65851 -1.64145 -6.63062 3.5504 26.33782 2.35514 60.90806 -92.621 -13.65323 6.62687 82.07052 -15.85488 6.76746 -100.65822 -5.73661 -2.87176 -3.58079 84.95246 14.51927 2.62181 -103.9211 -6.61345 3.58303 3.97635
0.6493 -0.04417 -0.53133 380.94829 -10.25682 -4.33758 -1.63918 1.55833 -5.0483 -60.59501 -12.45752 -2.11987 -39.93454 -26.33302 7.14666 77.50704 80.60844 -1.63388 -6.60932 4.62382 25.50261 0.86885 59.78279 -97.46844 -15.96549 7.21374 80.83111 -16.12784 6.82243 -101.11401 -5.73567 -2.86362 -3.5771 83.86792 14.06432 2.15853 -104.48455 -6.62429 3.56938 3.9704
0.64893 -0.04607 -0.53117 381.27744 -8.77061 -4.33673 -1.08291 1.25746 -5.11804 -60.98689 -11.67364 -2.11987 -38.8987 -26.17368 7.27454 76.1793 80.49267 -1.64189 -6.8125 5.48847 24.51702 -0.75374 58.55972 -103.54074 -18.86223 7.94237 79.51182 -16.56671 6.72782 -101.41664 -5.73404 -2.84897 -3.57037 82.71118 13.45797 1.59771 -104.93926 -6.65336 3.55762 3.96655
0.64839 -0.04826 -0.53096 381.59429 -7.2643 -4.34741 -0.58895 0.96171 -5.19264 -61.40418 -10.85574 -2.11987 -37.78414 -26.01728 7.43365 74.7844 80.41146 -1.63502 -6.90267 6.43542 23.598 -2.30738 57.3889 -108.88372 -21.39749 8.58873 78.2318 -16.91544 6.70782 -101.78751 -5.73291 -2.83791 -3.56533 81.59394 12.9509 1.10048 -105.44351 -6.67268 3.5439 3.96105
0.64785 -0.05044 -0.53076 381.93428 -5.73708 -4.35407 -0.08497 0.63439 -5.28186 -61.89667 -9.97705 -2.11986 -36.72208 -25.83043 7.59001 73.32182 80.31525 -1.66 -7.03042 7.43799 22.68253 -3.89961 56.1803 -114.94917 -24.33126 9.31019 76.93072 -17.32216 6.65843 -102.15715 -5.73114 -2.82452 -3.55913 80.44264 12.31847 0.52215 -105.94078 -6.69777 3.53421 3.95813
0.6474 -0.05251 -0.53057 382.22888 -4.26686 -4.36334 0.42724 0.37497 -5.33611 -62.21103 -9.25184 -2.11986 -35.58379 -25.70793 7.737 72.04461 80.2295 -1.62147 -7.13702 8.27629 21.72543 -5.44117 55.02632 -119.81401 -26.58193 9.91047 75.65745 -17.64888 6.63475 -102.49466 -5.73049 -2.8143 -3.55455 79.34767 11.90867 0.08831 -106.42861 -6.71571 3.51686 3.95052
0.64712 -0.05445 -0.53039 382.39761 -2.94159 -4.38373 0.94563 0.29606 -5.29959 -62.04355 -8.92209 -2.11987 -34.23938 -25.77076 7.85058 71.25892 80.23058 -1.42087 -7.12687 8.68479 20.69143 -6.8001 54.0821 -120.92551 -26.72918 10.12264 74.4857 -17.71723 6.72457 -102.79329 -5.733 -2.81461 -3.55523 78.42441 12.16621 0.09134 -106.92527 -6.70517 3.47718 3.92867
0.6469 -0.0563 -0.53021 382.51917 -1.67235 -4.40765 1.46454 0.28654 -5.22826 -61.70204 -8.7442 -2.11987 -32.80757 -25.89575 7.96105 70.65147 80.23724 -1.15381 -7.09061 8.93904 19.62159 -8.10395 53.19197 -120.80856 -26.18089 10.2109 73.34562 -17.69954 6.84423 -103.06365 -5.73665 -2.81824 -3.55758 77.56289 12.64976 0.24019 -107.416 -6.68793 3.42988 3.9022
0.64664 -0.05818 -0.53003 382.66005 -0.37643 -4.43072 1.97206 0.24939 -5.17196 -61.44925 -8.49976 -2.11987 -31.39124 -25.98579 8.08665 69.94867 80.21273 -0.90528 -7.06838 9.28174 18.56724 -9.43741 52.25382 -121.34755 -26.00175 10.36851 72.18815 -17.71962 6.94712 -103.34015 -5.73984 -2.82022 -3.55911 76.67295 13.0195 0.31388 -107.90459 -6.67616 3.38666 3.87841
0.64645 -0.06009 -0.52986 382.81089 0.91458 -4.44966 2.53062 0.19612 -5.11829 -61.15411 -8.24956 -2.11988 -30.08137 -26.10543 8.1497 69.31106 80.30368 -0.70319 -7.04023 9.54191 17.50878 -10.7554 51.40638 -121.52887 -25.62594 10.47761 71.03784 -17.75044 7.05987 -103.63988 -5.74281 -2.82264 -3.56084 75.77572 13.43126 0.42371 -108.40828 -6.65346 3.34106 3.85228
0.64612 -0.06193 -0.52967 382.929 2.2006 -4.47856 2.98219 0.19253 -5.05121 -60.90508 -8.04467 -2.11988 -28.528 -26.17686 8.34622 68.57941 80.1603 -0.39261 -7.0209 9.93739 16.45504 -12.09208 50.39 -122.13264 -25.47829 10.6545 69.88439 -17.73705 7.15918 -103.88603 -5.74645 -2.82492 -3.56254 74.91708 13.81063 0.49164 -108.88229 -6.65335 3.2984 3.82986
0.6454 -0.06361 -0.52941 382.97334 3.50847 -4.53233 3.12978 0.3119 -4.95502 -60.84318 -7.93874 -2.11988 -26.3185 -26.11063 8.88538 67.53176 79.32906 0.23993 -6.98143 10.7677 15.40148 -13.48178 48.84518 -124.32175 -26.201 11.06482 68.68845 -17.61536 7.23198 -103.99648 -5.75216 -2.82675 -3.56416 74.08417 14.05025 0.43117 -109.26162 -6.70265 3.26758 3.81917
0.64455 -0.06522 -0.52913 382.98551 4.80904 -4.59649 3.17084 0.47813 -4.84698 -60.83068 -7.86996 -2.11988 -23.86886 -25.99209 9.5639 66.38625 78.26585 0.97385 -6.95847 11.73608 14.35915 -14.8942 47.13848 -126.94833 -27.1604 11.54387 67.49376 -17.45254 7.2879 -104.05373 -5.75844 -2.82822 -3.56562 73.30067 14.24935 0.32023 -109.61437 -6.77719 3.23978 3.81235
